<?xml version="1.0" encoding="UTF-8" standalone="no"?>
<!-- Generator: Adobe Illustrator 18.1.1, SVG Export Plug-In . SVG Version: 6.00 Build 0)  -->

<svg
   xmlns:dc="http://purl.org/dc/elements/1.1/"
   xmlns:cc="http://creativecommons.org/ns#"
   xmlns:rdf="http://www.w3.org/1999/02/22-rdf-syntax-ns#"
   xmlns:svg="http://www.w3.org/2000/svg"
   xmlns="http://www.w3.org/2000/svg"
   xmlns:sodipodi="http://sodipodi.sourceforge.net/DTD/sodipodi-0.dtd"
   xmlns:inkscape="http://www.inkscape.org/namespaces/inkscape"
   version="1.1"
   id="Livello_1"
   x="0px"
   y="0px"
   viewBox="0 0 511.99998 511.99998"
   enable-background="new 0 0 566.9 566.9"
   xml:space="preserve"
   sodipodi:docname="block-group.svg"
   inkscape:version="0.92.4 (5da689c313, 2019-01-14)"
   width="512"
   height="512"><metadata
   id="metadata21"><rdf:RDF><cc:Work
       rdf:about=""><dc:format>image/svg+xml</dc:format><dc:type
         rdf:resource="http://purl.org/dc/dcmitype/StillImage" /><dc:title /></cc:Work></rdf:RDF></metadata><defs
   id="defs19" /><sodipodi:namedview
   pagecolor="#ffffff"
   bordercolor="#666666"
   borderopacity="1"
   objecttolerance="10"
   gridtolerance="10"
   guidetolerance="10"
   inkscape:pageopacity="0"
   inkscape:pageshadow="2"
   inkscape:window-width="1920"
   inkscape:window-height="1017"
   id="namedview17"
   showgrid="false"
   inkscape:zoom="0.83259829"
   inkscape:cx="145.31169"
   inkscape:cy="175.97513"
   inkscape:window-x="-8"
   inkscape:window-y="-8"
   inkscape:window-maximized="1"
   inkscape:current-layer="Livello_1"
   showguides="true"
   inkscape:guide-bbox="true"
   inkscape:snap-intersection-paths="false"
   inkscape:object-nodes="true"><sodipodi:guide
     position="96.000421,402.00098"
     orientation="1,0"
     id="guide1414"
     inkscape:locked="false" /><sodipodi:guide
     position="416.0004,110.001"
     orientation="1,0"
     id="guide1416"
     inkscape:locked="false" /></sodipodi:namedview>
<symbol
   id="New_Symbol"
   viewBox="-106 -104 212 208.1"
   transform="translate(0,-54.900024)">
	<path
   d="m 0.5,38.4 c 2.2,0 5.4,-1.5 8.8,-1.5 1.7,0 3.2,0.2 4.7,0.9 5.3,2.4 10.9,2.6 16.6,2.7 11.1,0.1 21.6,-2.6 32.1,-5.6 10.5,-3 18.8,-9.3 25.7,-17.8 7.6,-9.4 12.8,-19.8 15.6,-31.5 2.3,-9.7 2.5,-19.6 1.1,-29.5 -1,-6.9 -3.3,-13.6 -5.9,-20.1 -3.6,-9 -8.8,-16.9 -16.2,-23.1 -5.5,-4.6 -11.7,-7.9 -18.4,-10.2 -4.2,-1.5 -8.4,-2.7 -12.7,-3.8 -3.7,-1 -7.4,-1.3 -11.1,-1.8 -10.4,-1.4 -20.9,-1.6 -31.3,-0.3 -7.2,0.9 -14.4,2.4 -21.5,4 -6.3,1.4 -12.5,3 -18.2,6 -7.5,3.9 -14.8,8.2 -21.4,13.7 -8.1,6.8 -14,15.1 -18.2,24.8 -2.4,5.4 -4.4,10.9 -5.4,16.7 -1.7,10.6 -0.9,20.9 2.7,30.9 3.5,10 8.7,19.2 16.2,26.9 4.9,5.2 10.2,10.2 16.9,13.2 6,2.7 12.2,4.7 18.7,5.7 6.7,1.1 13.3,1 21.2,-0.3 z"
   id="path2"
   inkscape:connector-curvature="0"
   style="fill:#e51336" />
	<path
   d="m 4,53 c -8,-3 -16.3,-4.5 -24.9,-4.3 -3.6,0.1 -7.1,1.2 -10.6,2.1 -8,2 -14.9,6.2 -22.2,9.7 -7.1,3.3 -14.3,6.5 -21.1,10.6 -8,4.8 -15.2,10.7 -22,17 -2.6,2.4 -4.8,5.4 -6.1,8.8 -0.5,1.3 -1.5,2.3 -2.4,3.5 -1.2,1.6 -0.9,2.7 1.1,3.2 1.9,0.5 3.9,0.5 5.9,0.3 8.5,-1.2 16.8,-3.2 24.9,-5.8 13.4,-4.3 26.2,-9.9 38.3,-16.9 8.1,-4.7 16.1,-9.7 23.9,-15.1 4.3,-3 8.4,-6.6 13.3,-8.7 C 3.1,56 3.7,54.5 4,53 Z"
   id="path4"
   inkscape:connector-curvature="0"
   style="fill:#576f36" />
	<path
   d="M 63.4,92.3 C 62.4,82.9 57.4,75.6 51.1,68.9 45.7,63.1 39.4,58.4 32.6,54.2 28.7,51.8 25,49.1 20.7,47.5 18.4,46.7 17.2,47.4 17,49.8 c -0.8,8 1.6,15.2 6.2,21.6 5.5,7.6 12.2,14.1 20,19.4 3.9,2.7 7.8,5.2 12.3,6.8 1.8,0.7 3.7,1.1 5.6,1.3 2,0.2 3,-0.9 2.8,-2.9 -0.1,-1.2 -0.3,-2.4 -0.5,-3.7 z"
   id="path6"
   inkscape:connector-curvature="0"
   style="fill:#576f36" />
	<path
   d="m 4,53 c -0.3,1.6 -0.9,3 -1.8,4.4 -2.4,6.4 -5.2,12.7 -8.2,19 -2.1,4.5 -4.6,8.7 -7,13 -0.7,1.3 -2,2.2 -2.6,3.6 -0.3,0.7 -0.6,1.4 0,2.1 0.6,0.7 1.3,0.3 2,-0.1 4.9,-3 9,-6.7 12.5,-11.3 4.3,-5.9 7.3,-12.3 9.8,-19.2 1.8,-5 3,-10.2 4.5,-15.3 0.5,-1.7 -0.4,-2.8 -1.4,-3.7 C 10.7,44.5 9.3,43.6 7.6,43.9 6.9,44 6.8,44.8 6.5,45.4 5.6,47.9 5.3,50.6 4,53 Z"
   id="path8"
   inkscape:connector-curvature="0"
   style="fill:#e56c25" />
	<path
   d="M 4.4,-73.6 C 4,-61.4 3.1,-49.2 2.8,-37 2.4,-24.6 1.6,-12.2 1,0.1 1,0.6 1,1.1 1,1.6 1.2,5 1.4,5.2 4.6,4 6,3.4 7.3,2.5 8.7,1.8 c 7.5,-3.8 15,-7.4 22.5,-11.3 6.3,-3.3 12.6,-6.7 18.8,-10.2 6.2,-3.5 12.6,-6.7 19.2,-9.4 2,-0.8 4,-1.9 5.8,-3.1 1.5,-1 1.3,-2.4 -0.2,-3.1 C 68.2,-38.5 61.9,-42.4 55.6,-46.2 45.5,-52.4 36,-59.6 26.6,-66.8 20.3,-71.6 14,-76.2 7.1,-80.1 c -1.7,-1 -2.4,-0.6 -2.5,1.3 -0.2,1.8 -0.1,3.5 -0.2,5.2 z"
   id="path10"
   inkscape:connector-curvature="0"
   style="fill:#fce9ed" />
</symbol>


<path
   style="color:#000000;clip-rule:nonzero;display:inline;overflow:visible;visibility:visible;opacity:1;isolation:auto;mix-blend-mode:normal;color-interpolation:sRGB;color-interpolation-filters:linearRGB;solid-color:#000000;solid-opacity:1;vector-effect:none;fill:#000000;fill-opacity:1;fill-rule:evenodd;stroke:none;stroke-width:1.88976383;stroke-linecap:round;stroke-linejoin:miter;stroke-miterlimit:4;stroke-dasharray:3.77952755, 3.77952755;stroke-dashoffset:0;stroke-opacity:1;paint-order:normal;color-rendering:auto;image-rendering:auto;shape-rendering:auto;text-rendering:auto;enable-background:accumulate"
   d="M 64 0 C 28.544 0 0 28.544 0 64 L 0 448 C 0 483.456 28.544 512 64 512 L 448 512 C 483.456 512 512 483.456 512 448 L 512 64 C 512 28.544 483.456 0 448 0 L 64 0 z M 46 46 L 466 46 L 466 466 L 46 466 L 46 46 z M 106.14258 99.998047 A 10.001 10.001 0 1 0 106.14258 119.99805 L 405.85742 119.99805 A 10.001 10.001 0 1 0 405.85742 99.998047 L 106.14258 99.998047 z M 124 152 C 108.488 152 96 164.488 96 180 L 96 324 C 96 339.512 108.488 352 124 352 L 388 352 C 403.512 352 416 339.512 416 324 L 416 180 C 416 164.488 403.512 152 388 152 L 124 152 z M 106.14258 391.99805 A 10.001 10.001 0 1 0 106.14258 411.99805 L 405.85742 411.99805 A 10.001 10.001 0 1 0 405.85742 391.99805 L 106.14258 391.99805 z "
   id="rect831" /></svg>